<?xml version="1.0" encoding="UTF-8"?>
<svg id="_レイヤー_1" xmlns="http://www.w3.org/2000/svg" viewBox="0 0 5281.43 2499.94">
  <defs>
    <style>
      .cls-1 {
        fill: #de4c36;
      }

      .cls-2 {
        fill: #231815;
      }
    </style>
  </defs>
  <path class="cls-1" d="M2452.85,1138.6L1361.33,47.15c-62.82-62.86-164.78-62.86-227.68,0l-226.66,226.66,287.53,287.53c66.82-22.58,143.44-7.43,196.7,45.83,53.52,53.6,68.55,130.88,45.43,197.91l277.1,277.11c67.04-23.1,144.39-8.15,197.94,45.48,74.83,74.8,74.83,196.04,0,270.9-74.85,74.86-196.09,74.86-270.99,0-56.29-56.35-70.2-139.01-41.7-208.36l-258.42-258.42-.03,680.05c18.73,9.26,35.84,21.5,50.66,36.23,74.83,74.8,74.83,196.05,0,270.97-74.85,74.82-196.15,74.82-270.9,0-74.83-74.91-74.83-196.15,0-270.96,17.93-17.94,39.25-32.15,62.71-41.81v-686.39c-23.49-9.59-44.82-23.81-62.71-41.81-56.7-56.62-70.33-139.81-41.28-209.43l-283.44-283.47L47.17,1133.56c-62.89,62.92-62.89,164.88,0,227.75l1091.54,1091.48c62.84,62.87,164.78,62.87,227.7,0l1086.44-1086.42c62.87-62.89,62.87-164.91,0-227.77"/>
  <path class="cls-2" d="M4034.46,33.75c-688.62,0-1247.05,558.23-1247.05,1246.95,0,551.02,357.33,1018.41,852.77,1183.26,62.29,11.52,85.23-27.04,85.23-59.99,0-29.74-1.2-127.99-1.7-232.14-346.91,75.41-420.12-147.12-420.12-147.12-56.68-144.11-138.51-182.47-138.51-182.47-113.17-77.41,8.51-75.81,8.51-75.81,125.19,8.81,191.18,128.49,191.18,128.49,111.27,190.68,291.73,135.5,362.84,103.65,11.22-80.62,43.46-135.6,79.22-166.75-277.01-31.55-568.14-138.51-568.14-616.31,0-136.1,48.67-247.37,128.49-334.7-12.92-31.35-55.58-158.13,12.12-329.89,0,0,104.76-33.55,343.01,127.79,99.45-27.64,206.11-41.46,312.16-41.96,105.96.5,212.72,14.32,312.36,41.96,238.05-161.34,342.61-127.79,342.61-127.79,67.9,171.75,25.14,298.64,12.22,329.99,79.92,87.33,128.29,198.59,128.29,334.7,0,478.91-291.73,584.47-569.44,615.31,44.77,38.66,84.63,114.57,84.63,230.94,0,166.85-1.4,301.15-1.4,342.21,0,33.15,22.43,72.11,85.63,59.79,495.23-165.04,852.06-632.34,852.06-1183.16,0-688.72-558.33-1246.95-1246.95-1246.95"/>
</svg>