<?xml version="1.0" encoding="UTF-8"?>
<svg id="_レイヤー_1" xmlns="http://www.w3.org/2000/svg" xmlns:xlink="http://www.w3.org/1999/xlink" viewBox="0 0 2496.29 2028.81">
  <defs>
    <style>
      .cls-1 {
        fill: none;
      }

      .cls-2 {
        fill: url(#_名称未設定グラデーション_6);
      }

      .cls-2, .cls-3, .cls-4, .cls-5, .cls-6 {
        fill-rule: evenodd;
      }

      .cls-3 {
        fill: url(#_名称未設定グラデーション_5);
      }

      .cls-4 {
        fill: url(#_名称未設定グラデーション_3);
      }

      .cls-5 {
        fill: url(#_名称未設定グラデーション_4);
      }

      .cls-6 {
        fill: url(#_名称未設定グラデーション_7);
      }

      .cls-7 {
        fill: url(#_名称未設定グラデーション_2);
      }

      .cls-8 {
        fill: #231815;
      }

      .cls-9 {
        fill: #539e43;
      }

      .cls-10 {
        fill: url(#_名称未設定グラデーション);
      }
    </style>
    <linearGradient id="_名称未設定グラデーション" data-name="名称未設定グラデーション" x1="2243" y1="779.67" x2="2242.6" y2="780.39" gradientTransform="translate(-1192484.68 -472247.53) scale(532.1 606.29)" gradientUnits="userSpaceOnUse">
      <stop offset="0" stop-color="#41873f"/>
      <stop offset=".33" stop-color="#418b3d"/>
      <stop offset=".64" stop-color="#419637"/>
      <stop offset=".93" stop-color="#3fa92d"/>
      <stop offset="1" stop-color="#3fae2a"/>
    </linearGradient>
    <linearGradient id="_名称未設定グラデーション_2" data-name="名称未設定グラデーション 2" x1="2242.65" y1="780.04" x2="2243.81" y2="779.31" gradientTransform="translate(-1164593.04 -472050.53) scale(519.69 606.04)" gradientUnits="userSpaceOnUse">
      <stop offset=".14" stop-color="#41873f"/>
      <stop offset=".4" stop-color="#54a044"/>
      <stop offset=".71" stop-color="#66b848"/>
      <stop offset=".91" stop-color="#6cc04a"/>
    </linearGradient>
    <linearGradient id="_名称未設定グラデーション_3" data-name="名称未設定グラデーション 3" x1="1704.06" y1="509.53" x2="1801.48" y2="509.53" gradientTransform="translate(-6989.48 -557.26) scale(4.51 1.69)" gradientUnits="userSpaceOnUse">
      <stop offset=".09" stop-color="#6cc04a"/>
      <stop offset=".29" stop-color="#66b848"/>
      <stop offset=".6" stop-color="#54a044"/>
      <stop offset=".86" stop-color="#41873f"/>
    </linearGradient>
    <linearGradient id="_名称未設定グラデーション_4" data-name="名称未設定グラデーション 4" x1="2242.17" y1="779.99" x2="2243.23" y2="779.99" gradientTransform="translate(-1163324.09 -472435.03) scale(519.13 606.53)" gradientUnits="userSpaceOnUse">
      <stop offset=".09" stop-color="#6cc04a"/>
      <stop offset=".29" stop-color="#66b848"/>
      <stop offset=".6" stop-color="#54a044"/>
      <stop offset=".86" stop-color="#41873f"/>
    </linearGradient>
    <linearGradient id="_名称未設定グラデーション_5" data-name="名称未設定グラデーション 5" x1="821.2" y1="665.41" x2="918.61" y2="665.41" gradientTransform="translate(-359.08 -1818.95) scale(1.69 3.95)" gradientUnits="userSpaceOnUse">
      <stop offset=".09" stop-color="#6cc04a"/>
      <stop offset=".29" stop-color="#66b848"/>
      <stop offset=".6" stop-color="#54a044"/>
      <stop offset=".86" stop-color="#41873f"/>
    </linearGradient>
    <linearGradient id="_名称未設定グラデーション_6" data-name="名称未設定グラデーション 6" x1="2237.13" y1="778.04" x2="2239.18" y2="778.04" gradientTransform="translate(-600221.68 -129511.3) scale(268.59 167.59)" gradientUnits="userSpaceOnUse">
      <stop offset=".09" stop-color="#6cc04a"/>
      <stop offset=".29" stop-color="#66b848"/>
      <stop offset=".6" stop-color="#54a044"/>
      <stop offset=".86" stop-color="#41873f"/>
    </linearGradient>
    <linearGradient id="_名称未設定グラデーション_7" data-name="名称未設定グラデーション 7" x1="2239.47" y1="775.41" x2="2238.21" y2="779.54" gradientTransform="translate(-600221.68 -129511.3) scale(268.59 167.59)" gradientUnits="userSpaceOnUse">
      <stop offset="0" stop-color="#41873f"/>
      <stop offset=".33" stop-color="#418b3d"/>
      <stop offset=".64" stop-color="#419637"/>
      <stop offset=".93" stop-color="#3fa92d"/>
      <stop offset="1" stop-color="#3fae2a"/>
    </linearGradient>
  </defs>
  <path class="cls-8" d="M531.48,1936.19v-161.62h201.79v-9.45h-201.79v-147.44h214.55v-9.45h-224v337.42h225.89v-9.45h-216.44ZM929.87,1702.73l-83.64,110.11-81.76-110.11h-12.29l88.37,117.2-96.88,125.7h11.34l91.21-118.62,91.68,118.62h11.81l-97.35-125.71,88.84-117.2h-11.34,0ZM978.07,2028.81v-151.22h.94c5.67,22.05,16.86,39.77,33.55,53.16,16.7,13.39,37.96,20.08,63.8,20.08,16.7,0,31.51-3.39,44.42-10.16,12.92-6.77,23.71-15.99,32.37-27.65s15.28-25.2,19.85-40.64c4.57-15.44,6.85-31.66,6.85-48.67,0-18.27-2.37-35.13-7.09-50.57-4.73-15.44-11.58-28.83-20.56-40.17-8.98-11.34-19.85-20.17-32.61-26.46-12.76-6.3-27.17-9.45-43.24-9.45-12.29,0-23.71,1.81-34.26,5.43s-19.93,8.74-28.12,15.36c-8.24,6.67-15.41,14.56-21.27,23.39-5.98,8.98-10.55,18.82-13.71,29.54h-.94v-68.06h-9.45v326.08h9.47ZM1076.36,1941.86c-29.61,0-53.4-10.16-71.36-30.48-17.96-20.32-26.94-49.54-26.94-87.66,0-15.75,2.21-30.72,6.62-44.89,4.41-14.18,10.79-26.62,19.14-37.33,8.35-10.71,18.67-19.22,30.95-25.52,12.29-6.3,26.15-9.45,41.59-9.45s29.54,3.15,41.35,9.45c11.81,6.3,21.58,14.89,29.3,25.75s13.55,23.31,17.49,37.33c3.94,14.02,5.91,28.91,5.91,44.66,0,14.18-1.81,28.28-5.43,42.3s-9.22,26.62-16.78,37.81c-7.56,11.18-17.25,20.32-29.06,27.41-11.82,7.09-26.07,10.63-42.77,10.63h0ZM1231.84,1945.65v-137.52c0-13.23,1.89-26.15,5.67-38.75s9.61-23.71,17.48-33.32c7.88-9.61,17.88-17.17,30.01-22.69,12.13-5.51,26.54-7.8,43.24-6.85v-9.45c-14.49-.31-27.17,1.26-38.04,4.73s-20.24,8.19-28.12,14.18c-7.88,5.98-14.18,12.99-18.9,21.03-4.72,8.02-8.23,16.7-10.4,25.75h-.94v-60.02h-9.45v242.91h9.45ZM1340.06,1826.08h203.21c.63-16.7-1.02-32.76-4.96-48.2s-10.24-29.14-18.9-41.11c-8.67-11.97-19.85-21.58-33.55-28.83-13.71-7.25-30.01-10.87-48.91-10.87-13.55,0-26.78,2.84-39.7,8.51-12.92,5.67-24.26,13.94-34.03,24.81-9.77,10.87-17.64,24.18-23.63,39.94-5.98,15.75-8.98,33.71-8.98,53.87,0,17.96,2.05,34.73,6.14,50.33s10.4,29.14,18.9,40.64c8.51,11.5,19.46,20.4,32.85,26.7,13.39,6.3,29.54,9.29,48.44,8.98,27.72,0,51.04-7.8,69.94-23.39,18.9-15.6,30.09-37.57,33.55-65.93h-9.45c-4.1,26.78-14.57,46.87-31.43,60.25-16.86,13.39-38.04,20.08-63.56,20.08-17.33,0-31.98-2.99-43.95-8.98-11.97-5.98-21.74-14.18-29.3-24.57-7.56-10.4-13.15-22.61-16.77-36.63s-5.59-29.22-5.91-45.6h0ZM1533.81,1816.63h-193.75c.94-17.01,4.09-32.29,9.45-45.84,5.36-13.55,12.37-25.13,21.03-34.73,8.66-9.61,18.75-16.93,30.24-21.98,11.5-5.04,23.87-7.56,37.1-7.56,15.75,0,29.61,2.92,41.59,8.74,11.97,5.83,21.97,13.78,30.01,23.87,8.03,10.08,14.1,21.82,18.19,35.21,4.1,13.39,6.14,27.49,6.14,42.3h0ZM1739.39,1774.57h9.45c0-27.1-7.88-46.79-23.63-59.07-15.76-12.29-37.18-18.43-64.27-18.43-15.12,0-27.88,1.89-38.28,5.67s-18.9,8.66-25.52,14.65c-6.61,5.98-11.34,12.6-14.18,19.85-2.84,7.25-4.25,14.18-4.25,20.79,0,13.23,2.36,23.79,7.09,31.66,4.73,7.88,12.13,14.02,22.21,18.43,6.93,3.15,14.81,5.98,23.63,8.51,8.82,2.52,19.06,5.2,30.72,8.03,10.4,2.52,20.63,5.04,30.72,7.56,10.08,2.52,18.98,5.91,26.7,10.16s14.02,9.69,18.9,16.31c4.88,6.61,7.32,15.28,7.32,25.99s-2.44,19.22-7.32,26.46c-4.84,7.21-11.22,13.26-18.67,17.72-7.56,4.57-15.99,7.87-25.28,9.92s-18.35,3.07-27.17,3.07c-28.67,0-50.65-6.38-65.93-19.14s-22.92-32.85-22.92-60.26h-9.45c0,30.56,8.27,52.93,24.81,67.11,16.54,14.18,41.04,21.26,73.49,21.26,10.4,0,20.87-1.18,31.43-3.55,10.55-2.36,20-6.22,28.35-11.58,8.28-5.28,15.23-12.4,20.32-20.79,5.2-8.51,7.8-18.9,7.8-31.19s-2.29-21.11-6.85-28.36c-4.57-7.24-10.55-13.23-17.96-17.96-7.4-4.73-15.75-8.43-25.05-11.1-9.35-2.69-18.72-5.29-28.12-7.8-11.57-3.03-23.15-6.03-34.73-8.98-9.92-2.52-19.14-5.51-27.64-8.98-8.19-3.47-14.73-8.43-19.61-14.89s-7.32-15.67-7.32-27.65c0-2.2.63-6.14,1.89-11.81s4.25-11.42,8.98-17.25,11.97-11.02,21.74-15.59,23.16-6.85,40.17-6.85c11.66,0,22.29,1.26,31.9,3.78s17.88,6.54,24.81,12.05,12.29,12.52,16.07,21.03c3.78,8.51,5.67,18.9,5.67,31.19h0l-.02.03ZM1958.19,1774.57h9.45c0-27.1-7.87-46.79-23.63-59.07-15.75-12.29-37.18-18.43-64.27-18.43-15.12,0-27.88,1.89-38.28,5.67s-18.9,8.66-25.52,14.65c-6.62,5.98-11.34,12.6-14.18,19.85-2.84,7.25-4.25,14.18-4.25,20.79,0,13.23,2.36,23.79,7.09,31.66,4.72,7.88,12.13,14.02,22.21,18.43,6.93,3.15,14.81,5.98,23.63,8.51,8.82,2.52,19.06,5.2,30.72,8.03,10.4,2.52,20.64,5.04,30.72,7.56s18.98,5.91,26.7,10.16,14.02,9.69,18.9,16.31c4.88,6.61,7.33,15.28,7.33,25.99s-2.44,19.22-7.33,26.46c-4.84,7.21-11.21,13.26-18.66,17.72-7.56,4.57-15.99,7.87-25.29,9.92-9.29,2.05-18.35,3.07-27.17,3.07-28.67,0-50.64-6.38-65.92-19.14s-22.92-32.85-22.92-60.26h-9.45c0,30.56,8.27,52.93,24.81,67.11,16.54,14.18,41.03,21.26,73.48,21.26,10.4,0,20.87-1.18,31.43-3.55,10.55-2.36,20-6.22,28.36-11.58,8.28-5.28,15.23-12.4,20.32-20.79,5.2-8.51,7.8-18.9,7.8-31.19s-2.28-21.11-6.85-28.36c-4.57-7.24-10.55-13.23-17.96-17.96-7.4-4.73-15.75-8.43-25.05-11.1-9.35-2.69-18.72-5.29-28.12-7.8-11.57-3.03-23.15-6.03-34.73-8.98-9.92-2.52-19.14-5.51-27.65-8.98-8.19-3.47-14.73-8.43-19.61-14.89s-7.33-15.67-7.33-27.65c0-2.2.63-6.14,1.89-11.81s4.25-11.42,8.98-17.25,11.97-11.02,21.74-15.59,23.16-6.85,40.17-6.85c11.66,0,22.29,1.26,31.9,3.78s17.88,6.54,24.81,12.05,12.29,12.52,16.07,21.03c3.78,8.51,5.67,18.9,5.67,31.19h0v.03Z"/>
  <g>
    <path class="cls-9" d="M1234.6,1528.57c-8.46,0-16.36-2.26-23.7-6.21l-75.04-44.57c-11.29-6.21-5.64-8.47-2.26-9.59,15.23-5.08,18.05-6.21,33.85-15.23,1.69-1.13,3.95-.57,5.64.56l57.56,34.42c2.26,1.13,5.08,1.13,6.77,0l225.14-130.34c2.26-1.13,3.39-3.39,3.39-6.21v-260.12c0-2.83-1.13-5.08-3.39-6.21l-225.14-129.78c-2.26-1.13-5.08-1.13-6.77,0l-225.14,129.78c-2.26,1.13-3.39,3.95-3.39,6.21v260.12c0,2.26,1.13,5.08,3.39,6.21l61.51,35.55c33.29,16.93,54.17-2.82,54.17-22.57v-256.74c0-3.38,2.82-6.77,6.77-6.77h28.78c3.39,0,6.77,2.82,6.77,6.77v256.74c0,44.57-24.26,70.53-66.58,70.53-12.98,0-23.13,0-51.91-14.11l-59.25-33.85c-14.67-8.46-23.7-24.26-23.7-41.19v-260.12c0-16.93,9.03-32.73,23.7-41.19l225.14-130.34c14.11-7.9,33.3-7.9,47.4,0l225.14,130.34c14.67,8.46,23.7,24.26,23.7,41.19v260.12c0,16.93-9.03,32.73-23.7,41.19l-225.14,130.34c-7.34,3.39-15.8,5.08-23.7,5.08h-.01ZM1304,1349.7c-98.74,0-119.06-45.14-119.06-83.51,0-3.39,2.82-6.77,6.77-6.77h29.34c3.38,0,6.21,2.26,6.21,5.64,4.52,29.9,17.49,44.57,77.3,44.57,47.4,0,67.72-10.72,67.72-36.11,0-14.67-5.65-25.39-79.56-32.73-61.51-6.21-99.87-19.75-99.87-68.84,0-45.71,38.37-72.79,102.7-72.79,72.22,0,107.77,24.83,112.29,78.99,0,1.7-.57,3.39-1.69,5.08-1.13,1.13-2.82,2.26-4.52,2.26h-29.34c-2.82,0-5.64-2.26-6.21-5.08-6.77-31.03-24.26-41.19-70.53-41.19-51.91,0-58.12,18.06-58.12,31.6,0,16.37,7.34,21.44,77.3,30.47,69.4,9.03,102.13,22.01,102.13,70.53-.57,49.66-41.19,77.87-112.86,77.87h0Z"/>
    <path class="cls-8" d="M536.05,511.22c0-10.15-5.64-19.75-14.67-24.83l-239.25-137.68c-3.95-2.26-8.47-3.39-12.98-3.95h-2.26c-4.51,0-9.03,1.69-12.98,3.95L14.67,486.39c-9.03,5.08-14.67,14.67-14.67,24.83l.57,370.15c0,5.08,2.82,10.15,7.33,12.42,4.52,2.82,10.15,2.82,14.11,0l142.19-81.25c9.03-5.08,14.67-14.67,14.67-24.83v-173.23c0-10.15,5.64-19.75,14.67-24.83l60.37-34.99c4.52-2.82,9.59-3.95,14.67-3.95s10.15,1.13,14.11,3.95l60.37,34.99c9.03,5.08,14.67,14.67,14.67,24.83v173.23c0,10.15,5.64,19.75,14.67,24.83l142.19,81.25c4.52,2.82,10.15,2.82,14.67,0,4.52-2.26,7.34-7.34,7.34-12.42l-.57-370.15h.02ZM1686.01,1.69c-4.51-2.26-10.15-2.26-14.11,0-4.51,2.82-7.33,7.33-7.33,12.41v366.77c0,3.38-1.69,6.77-5.08,9.03-3.38,1.69-6.77,1.69-10.15,0l-59.81-34.42c-8.92-5.08-19.86-5.08-28.78,0l-239.25,138.24c-9.03,5.08-14.67,14.67-14.67,24.83v275.92c0,10.15,5.64,19.75,14.67,24.83l239.25,138.24c8.92,5.08,19.86,5.08,28.78,0l239.25-138.24c9.03-5.08,14.67-14.67,14.67-24.83V106.65c0-10.72-5.64-20.31-14.67-25.39L1686.01,1.69h0ZM1664,703.63c0,2.82-1.13,5.08-3.39,6.21l-81.82,47.4c-2.32,1.13-5.02,1.13-7.34,0l-81.82-47.4c-2.26-1.13-3.39-3.95-3.39-6.21v-94.8c0-2.82,1.13-5.08,3.39-6.21l81.82-47.4c2.32-1.13,5.02-1.13,7.34,0l81.82,47.4c2.26,1.12,3.39,3.95,3.39,6.21v94.8h0ZM2482.18,606.58c9.03-5.08,14.11-14.67,14.11-24.83v-67.14c0-10.15-5.64-19.75-14.11-24.83l-237.55-137.68c-8.92-5.08-19.86-5.08-28.78,0l-239.25,138.24c-9.03,5.08-14.67,14.67-14.67,24.83v275.92c0,10.15,5.64,19.75,14.67,24.83l237.55,135.42c9.03,5.08,19.75,5.08,28.21,0l143.88-80.12c4.52-2.26,7.34-7.34,7.34-12.42s-2.82-10.15-7.34-12.42l-240.37-138.24c-4.51-2.82-7.33-7.33-7.33-12.41v-86.33c0-5.08,2.82-10.15,7.33-12.42l75.05-42.88c4.48-2.82,10.19-2.82,14.67,0l75.04,42.88c4.52,2.82,7.34,7.33,7.34,12.42v67.71c0,5.08,2.82,10.15,7.33,12.41,4.52,2.82,10.15,2.82,14.67,0l142.19-82.95h.02Z"/>
    <path class="cls-9" d="M2226.57,593.59c1.71-1.13,3.93-1.13,5.64,0l45.71,26.52c1.69,1.12,2.82,2.82,2.82,5.08v53.04c0,2.26-1.13,3.95-2.82,5.08l-45.71,26.52c-1.71,1.13-3.93,1.13-5.64,0l-45.71-26.52c-1.69-1.13-2.82-2.82-2.82-5.08v-53.04c0-2.26,1.13-3.95,2.82-5.08l45.71-26.52Z"/>
    <g>
      <path id="a" class="cls-10" d="M936.11,353.23c-8.92-5.08-19.86-5.08-28.78,0l-237.55,137.11c-9.03,5.08-14.11,14.67-14.11,24.83v274.8c0,10.15,5.64,19.75,14.11,24.83l237.55,137.12c8.92,5.08,19.86,5.08,28.78,0l237.56-137.12c9.03-5.08,14.11-14.67,14.11-24.83v-274.79c0-10.15-5.65-19.75-14.11-24.83l-237.56-137.11h0Z"/>
      <g>
        <path class="cls-1" d="M906.76,353.23l-238.11,137.11c-9.04,5.08-15.24,14.68-15.24,24.84v274.8c0,6.77,2.82,12.98,7.33,18.05l267.46-458.18c-6.77-1.13-14.67-.57-21.44,3.38h0ZM929.9,954.72c2.26-.57,4.52-1.69,6.77-2.82l238.12-137.12c9.03-5.08,14.67-14.67,14.67-24.83v-274.8c0-7.33-3.39-14.67-8.47-19.75l-251.09,459.31h0Z"/>
        <path class="cls-7" d="M1174.22,490.33l-238.68-137.11c-2.35-1.18-4.8-2.13-7.34-2.82l-267.46,458.18c2.22,2.7,4.89,5,7.9,6.77l238.68,137.12c6.77,3.95,14.67,5.08,22,2.82l251.1-459.3c-1.69-2.26-3.95-3.95-6.21-5.64h0v-.02Z"/>
      </g>
      <g>
        <path class="cls-1" d="M1189.46,789.96v-274.8c0-10.15-6.21-19.75-15.23-24.83l-238.69-137.11c-2.76-1.7-5.82-2.85-9.02-3.38l261.25,446.33c1.13-1.69,1.69-3.95,1.69-6.21h0ZM668.65,490.33c-9.02,5.08-15.23,14.68-15.23,24.83v274.8c0,10.15,6.77,19.75,15.23,24.83l238.68,137.12c5.64,3.38,11.85,4.52,18.62,3.38l-255.61-465.52-1.69.57h0Z"/>
        <path class="cls-4" d="M899.43,303.01l-3.38,1.69h4.51l-1.13-1.69Z"/>
        <path class="cls-5" d="M1174.79,814.78c6.77-3.95,11.85-10.72,14.11-18.05l-261.83-446.89c-6.77-1.13-14.11-.57-20.31,3.38l-236.99,136.55,255.61,466.08c3.72-.61,7.33-1.75,10.72-3.38l238.68-137.68h.01Z"/>
        <path class="cls-3" d="M1196.8,810.28l-1.69-2.82v3.95l1.69-1.13h0Z"/>
        <path class="cls-2" d="M1174.79,814.78l-238.12,137.12c-3.36,1.71-6.98,2.86-10.72,3.38l4.52,8.47,264.07-152.91v-3.39l-6.77-11.29c-1.13,7.9-6.21,14.67-12.98,18.62h0Z"/>
        <path class="cls-6" d="M1174.79,814.78l-238.12,137.12c-3.36,1.71-6.98,2.86-10.72,3.38l4.52,8.47,264.07-152.91v-3.39l-6.77-11.29c-1.13,7.9-6.21,14.67-12.98,18.62h0Z"/>
      </g>
    </g>
  </g>
</svg>